<svg xmlns="http://www.w3.org/2000/svg" width="512" height="512" viewBox="0 0 512 512">
  <path d="M512.348,197.446v34.737c0,125.5-88.417,229.7-205.982,253.105a37.287,37.287,0,0,0-21.707,13.261,36.589,36.589,0,0,1-56.966.006A37.293,37.293,0,0,0,205.975,485.3C88.527,461.969,0,358.34,0,234.042V198.1c0-20.263,16.577-37.378,36.84-37.245a36.608,36.608,0,0,1,36.353,36.6V232.4c0,107.769,88.072,191.523,195.593,184.2,95.179-6.485,170.37-85.738,170.37-182.557V198.1c0-20.263,16.577-37.378,36.84-37.245A36.609,36.609,0,0,1,512.348,197.446ZM256.174,343.831h0A109.789,109.789,0,0,1,146.385,234.042V109.615A109.789,109.789,0,0,1,256.174-.174h0A109.789,109.789,0,0,1,365.963,109.615V234.042A109.789,109.789,0,0,1,256.174,343.831Z"/>
</svg>
