<?xml version="1.0" encoding="iso-8859-1"?>
<!-- Generator: Adobe Illustrator 19.0.0, SVG Export Plug-In . SVG Version: 6.00 Build 0)  -->
<svg version="1.1" id="Layer_1" xmlns="http://www.w3.org/2000/svg" xmlns:xlink="http://www.w3.org/1999/xlink" x="0px" y="0px"
	 viewBox="0 0 512 512" style="enable-background:new 0 0 512 512;" xml:space="preserve">
<g>
	<g>
		<g>
			<path d="M256,341.333c58.907,0,106.667-47.759,106.667-106.667v-128C362.667,47.759,314.907,0,256,0
				S149.333,47.759,149.333,106.667v128C149.333,293.574,197.093,341.333,256,341.333z M256,42.667c35.343,0,64,28.657,64,64
				h-21.333c-11.782,0-21.333,9.551-21.333,21.333c0,11.782,9.551,21.333,21.333,21.333H320V192h-21.333
				c-11.782,0-21.333,9.551-21.333,21.333c0,11.782,9.551,21.333,21.333,21.333H320c0,35.343-28.657,64-64,64s-64-28.657-64-64
				h21.333c11.782,0,21.333-9.551,21.333-21.333c0-11.782-9.551-21.333-21.333-21.333H192v-42.667h21.333
				c11.782,0,21.333-9.551,21.333-21.333c0-11.782-9.551-21.333-21.333-21.333H192C192,71.323,220.657,42.667,256,42.667z"/>
			<path d="M448,128c-11.782,0-21.333,9.551-21.333,21.333v85.333c0,93.818-76.849,170.667-170.667,170.667
				S85.333,328.485,85.333,234.667v-85.333C85.333,137.551,75.782,128,64,128c-11.782,0-21.333,9.551-21.333,21.333v85.333
				c0,110.184,84.546,201.481,192,212.263v43.737c0,11.782,9.551,21.333,21.333,21.333c11.782,0,21.333-9.551,21.333-21.333V446.93
				c107.454-10.783,192-102.079,192-212.263v-85.333C469.333,137.551,459.782,128,448,128z"/>
		</g>
	</g>
</g>
<g>
</g>
<g>
</g>
<g>
</g>
<g>
</g>
<g>
</g>
<g>
</g>
<g>
</g>
<g>
</g>
<g>
</g>
<g>
</g>
<g>
</g>
<g>
</g>
<g>
</g>
<g>
</g>
<g>
</g>
</svg>
