<?xml version="1.0" encoding="iso-8859-1"?>
<!-- Generator: Adobe Illustrator 19.0.0, SVG Export Plug-In . SVG Version: 6.00 Build 0)  -->
<svg version="1.1" id="Capa_1" xmlns="http://www.w3.org/2000/svg" xmlns:xlink="http://www.w3.org/1999/xlink" x="0px" y="0px"
	 viewBox="0 0 512 512" style="enable-background:new 0 0 512 512;" xml:space="preserve">
<g>
	<g>
		<path d="M394.667,138.667c-64.853,0-117.333,52.48-117.333,117.333c0,28.373,10.027,54.4,26.773,74.667h-96.32
			C224.533,310.4,234.56,284.373,234.56,256c0-64.853-52.48-117.333-117.333-117.333S0,191.147,0,256s52.48,117.333,117.333,117.333
			h277.333C459.52,373.333,512,320.853,512,256S459.52,138.667,394.667,138.667z M117.333,330.667
			c-41.28,0-74.667-33.387-74.667-74.667c0-41.28,33.387-74.667,74.667-74.667C158.613,181.333,192,214.72,192,256
			C192,297.28,158.613,330.667,117.333,330.667z M394.667,330.667C353.387,330.667,320,297.28,320,256
			c0-41.28,33.387-74.667,74.667-74.667S469.333,214.72,469.333,256C469.333,297.28,435.947,330.667,394.667,330.667z"/>
	</g>
</g>
<g>
</g>
<g>
</g>
<g>
</g>
<g>
</g>
<g>
</g>
<g>
</g>
<g>
</g>
<g>
</g>
<g>
</g>
<g>
</g>
<g>
</g>
<g>
</g>
<g>
</g>
<g>
</g>
<g>
</g>
</svg>
