<?xml version="1.0" encoding="UTF-8"?><svg id="Layer_2" xmlns="http://www.w3.org/2000/svg" viewBox="0 0 59.75 48.48"><defs><style>.cls-1{fill:#edf4ed;}</style></defs><g id="Layer_2-2"><path class="cls-1" d="M13.37,48.48c-3.71,0-13.37-8.21-13.37-13.21C0,25.12,9.82,8.7,19.33,0l7.41,1.29c-5.48,6.28-9.82,15.46-10.79,22.71,4.03,.81,10.79,7.73,10.79,11.27,0,4.67-9.18,13.21-13.37,13.21Zm33.02,0c-3.7,0-13.37-8.21-13.37-13.21,0-10.15,9.82-26.57,19.33-35.27l7.41,1.29c-5.48,6.28-9.66,15.46-10.63,22.71,4.03,.81,10.63,7.73,10.63,11.27,0,4.67-9.18,13.21-13.37,13.21Z"/></g></svg>