<?xml version="1.0" encoding="UTF-8"?><svg id="Layer_2" xmlns="http://www.w3.org/2000/svg" viewBox="0 0 207.22 221.6"><defs><style>.cls-1{letter-spacing:-.01em;}.cls-2{fill:#edf4ed;}.cls-3{fill:#d2d8d2;}.cls-4{fill:#165067;}.cls-5{fill:#258ea6;}.cls-6{font-family:MyriadPro-Regular, 'Myriad Pro';font-size:12px;}.cls-7{letter-spacing:-.01em;}</style></defs><g id="Layer_2-2"><g><g><rect class="cls-3" x="39.2" y="11.89" width="151.03" height="197.81" rx="6.21" ry="6.21" transform="translate(24.22 -20.53) rotate(11.43)"/><path class="cls-4" d="M59.32,13.29H197.94c3.43,0,6.21,2.78,6.21,6.21v51.1H53.11V19.49c0-3.43,2.78-6.21,6.21-6.21Z" transform="translate(10.86 -24.65) rotate(11.43)"/><rect class="cls-4" x="56.63" y="79.84" width="69.38" height="8.21" rx="4.11" ry="4.11" transform="translate(18.44 -16.43) rotate(11.43)"/><rect class="cls-4" x="52.37" y="103.54" width="121.72" height="8.21" rx="4.11" ry="4.11" transform="translate(23.57 -20.3) rotate(11.43)"/><rect class="cls-4" x="48.79" y="121.24" width="121.72" height="8.21" rx="4.11" ry="4.11" transform="translate(27 -19.24) rotate(11.43)"/><rect class="cls-4" x="45.22" y="138.95" width="121.72" height="8.21" rx="4.11" ry="4.11" transform="translate(30.44 -18.18) rotate(11.43)"/><rect class="cls-4" x="41.64" y="156.65" width="121.72" height="8.21" rx="4.11" ry="4.11" transform="translate(33.88 -17.12) rotate(11.43)"/><rect class="cls-4" x="38.06" y="174.36" width="121.72" height="8.21" rx="4.11" ry="4.11" transform="translate(37.31 -16.06) rotate(11.43)"/></g><g><rect class="cls-2" y="11.34" width="158.89" height="208.1" rx="6.21" ry="6.21"/><path class="cls-5" d="M6.21,11.34H152.68c3.43,0,6.21,2.78,6.21,6.21v54.08H0V17.54c0-3.43,2.78-6.21,6.21-6.21Z"/><rect class="cls-5" x="13.24" y="88.25" width="72.99" height="8.64" rx="4.32" ry="4.32"/><rect class="cls-5" x="13.24" y="108.12" width="128.06" height="8.64" rx="4.32" ry="4.32"/><text class="cls-6" transform="translate(16.53 135.64)"><tspan class="cls-7" x="0" y="0">L</tspan><tspan x="5.5" y="0">o</tspan><tspan class="cls-1" x="12.08" y="0">r</tspan><tspan x="15.89" y="0">em ipsum dolor sit </tspan></text><rect class="cls-5" x="13.24" y="146.13" width="128.06" height="8.64" rx="4.32" ry="4.32"/><rect class="cls-5" x="13.24" y="165.13" width="128.06" height="8.64" rx="4.32" ry="4.32"/><rect class="cls-5" x="13.24" y="184.13" width="128.06" height="8.64" rx="4.32" ry="4.32"/></g><g><g><polygon class="cls-2" points="48.79 46.82 51.02 46.82 51.02 42.05 54.56 42.05 54.56 40.16 51.02 40.16 51.02 37.3 55.26 37.3 55.26 35.42 48.79 35.42 48.79 46.82"/><rect class="cls-2" x="56.7" y="38.73" width="2.16" height="8.09"/><path class="cls-2" d="M64.52,38.85c-.86,0-1.8,.3-2.13,.59l-.04-4.04h-2.09l.04,10.86c.7,.54,2.09,1.11,3.68,1.11,2.95,0,4.61-1.84,4.61-4.36s-1.79-4.16-4.07-4.16Zm-.64,6.74c-.57,0-1.22-.21-1.48-.39v-3.75c.25-.29,.89-.71,1.82-.71,1.29,0,2.23,1.04,2.23,2.39,0,1.47-.96,2.47-2.57,2.47Z"/><path class="cls-2" d="M73.57,38.5c-2.11,0-4.13,1.57-4.13,4.27s2.02,4.29,4.41,4.29c1.05,0,1.88-.21,2.48-.52l.21-1.93c-.55,.38-1.36,.64-2.3,.64-1.63,0-2.56-1.07-2.63-1.91h4.41l1.04-1.04c.04-.18,.05-.43,.05-.64,0-1.59-1.32-3.16-3.56-3.16Zm1.5,3.31h-3.39c.18-.93,1.05-1.63,1.93-1.63s1.48,.75,1.48,1.43c0,.07-.02,.13-.02,.2Z"/><path class="cls-2" d="M80.15,40.46h-.02v-1.73h-2.11v8.09h2.13v-3.93c0-1.59,.93-2.05,1.88-2.05,.25,0,.54,.07,.68,.12l.54-2.25c-.18-.07-.55-.11-.79-.11-1.11,0-2.02,.64-2.3,1.86Z"/><polygon class="cls-2" points="86.6 35.42 84.35 35.42 84.35 46.82 91.26 46.82 91.26 44.95 86.6 44.95 86.6 35.42"/><rect class="cls-2" x="92.37" y="38.73" width="2.16" height="8.09"/><path class="cls-2" d="M102.58,38.5c-.3,.16-.82,.29-1.23,.29s-.82-.05-1.14-.14c-.32-.09-.68-.14-1.13-.14-1.95,0-3.2,1.16-3.2,2.82,0,1.04,.59,1.8,1.27,2.2-.5,.18-.98,.68-1.02,1.23l.98,.96c-.84,.2-1.73,.95-1.73,2.27,0,1.68,1.52,2.97,3.81,2.97s3.75-1.2,3.75-2.79c0-1.48-.86-2.29-2.36-2.82l-1.72-.61c-.16-.05-.21-.18-.21-.27,0-.29,.29-.36,.77-.38,1.73-.05,2.82-1.29,2.82-2.68,0-.41-.14-.8-.29-1,.32,0,.77-.11,1-.25l-.38-1.66Zm-3.88,8.18l1.18,.34c.66,.2,1.02,.63,1.02,1.13,0,.55-.59,1.13-1.75,1.13s-1.8-.63-1.8-1.3c0-.73,.55-1.27,1.36-1.29Zm.38-4.2c-.75,0-1.3-.54-1.3-1.18s.55-1.2,1.3-1.2,1.29,.57,1.29,1.2-.59,1.18-1.29,1.18Z"/><path class="cls-2" d="M108.28,38.52c-1.2,0-1.91,.39-2.32,1h-.02v-4.07h-2.11v11.38h2.13v-5.06c0-.75,.57-1.43,1.61-1.43,1.09,0,1.54,.68,1.54,1.39v5.09h2.13v-5.5c0-1.75-1.18-2.81-2.95-2.81Z"/><path class="cls-2" d="M117.91,40.45l.38-1.72h-2.73v-2.59l-2.09,.91v1.68h-1.48v1.72h1.48v4c0,1.59,1.13,2.48,2.77,2.48,.43,0,.82-.07,1.05-.18l.18-1.64c-.2,.07-.41,.11-.7,.11-.79,0-1.22-.29-1.22-1.11v-3.66h2.36Z"/><rect class="cls-2" x="56.7" y="35.42" width="2.16" height="1.88"/><rect class="cls-2" x="92.38" y="35.42" width="2.16" height="1.88"/></g><g><polygon class="cls-2" points="33.12 40.11 29.56 40.11 28.03 37.52 31.59 37.52 33.12 40.11"/><polygon class="cls-2" points="45.26 40.98 41.26 40.98 40.76 40.11 36.63 32.93 40.63 32.93 45.26 40.98"/><polygon class="cls-2" points="45.26 40.98 40.63 49.04 36.63 49.04 40.75 41.86 41.26 40.98 45.26 40.98"/><polygon class="cls-2" points="38.61 40.11 35.11 40.11 31.72 34.22 35.22 34.22 38.61 40.11"/><polygon class="cls-2" points="38.6 41.86 35.22 47.75 31.72 47.75 35.1 41.86 38.6 41.86"/></g></g></g></g></svg>