<?xml version="1.0" encoding="UTF-8"?><svg id="Layer_1" xmlns="http://www.w3.org/2000/svg" viewBox="0 0 200 200"><defs><style>.cls-1{fill:#0a2239;stroke:#0a2239;stroke-miterlimit:10;stroke-width:.62px;}</style></defs><path class="cls-1" d="M99.17,73.63c-17.88,0-32.43-14.55-32.43-32.43S81.29,8.77,99.17,8.77s32.43,14.55,32.43,32.43-14.55,32.43-32.43,32.43Zm0-59c-14.65,0-26.57,11.92-26.57,26.57s11.92,26.57,26.57,26.57,26.57-11.92,26.57-26.57-11.92-26.57-26.57-26.57Z"/><path class="cls-1" d="M165.97,177.86h-5.86V100.6c0-1.84-1.5-3.34-3.34-3.34H43.24c-1.84,0-3.34,1.5-3.34,3.34v77.26h-5.86V100.6c0-5.08,4.13-9.2,9.2-9.2h113.53c5.07,0,9.2,4.13,9.2,9.2v77.26Z"/><path class="cls-1" d="M152.79,179.24H47.21c-1.62,0-2.93-1.31-2.93-2.93V104.39c0-1.62,1.31-2.93,2.93-2.93h105.58c1.62,0,2.93,1.31,2.93,2.93v71.93c0,1.62-1.31,2.93-2.93,2.93Zm-102.65-5.86h99.72V107.31H50.14v66.07Z"/><path class="cls-1" d="M170.83,191.23H29.62c-5.37,0-9.82-4.03-10.36-9.37l-.49-4.86c-.08-.83,.19-1.64,.74-2.26s1.34-.96,2.17-.96H178.31c1.62,0,2.93,1.31,2.93,2.93v4.12c0,5.74-4.67,10.41-10.41,10.41Zm-145.91-11.6l.17,1.65c.23,2.34,2.18,4.1,4.53,4.1H170.83c2.51,0,4.55-2.04,4.55-4.55v-1.19H24.92Z"/><rect class="cls-1" x="90.14" y="177.32" width="19.72" height="5.86"/><path class="cls-1" d="M59.72,135.25c-.75,0-1.51-.29-2.08-.87-1.14-1.15-1.13-3,.02-4.14l15.42-15.3c1.15-1.14,3-1.13,4.14,.02,1.14,1.15,1.13,3-.02,4.14l-15.42,15.3c-.57,.57-1.32,.85-2.06,.85Z"/><path class="cls-1" d="M55.68,121.89c-.75,0-1.5-.29-2.07-.86-1.14-1.14-1.14-3,0-4.14l5.9-5.9c1.15-1.14,3-1.14,4.14,0,1.14,1.14,1.14,3,0,4.14l-5.9,5.9c-.57,.57-1.32,.86-2.07,.86Z"/><g><line class="cls-1" x1="99.17" y1="70.46" x2="99.17" y2="94.13"/><rect class="cls-1" x="96.24" y="70.46" width="5.86" height="23.67"/></g><g><path class="cls-1" d="M109.89,58.66h-21.85c-1.62,0-2.93-1.31-2.93-2.93v-18.11c0-1.62,1.31-2.93,2.93-2.93h21.85c1.62,0,2.93,1.31,2.93,2.93v18.11c0,1.62-1.31,2.93-2.93,2.93Zm-18.92-5.86h15.99v-12.25h-15.99v12.25Z"/><path class="cls-1" d="M105.64,38.07c-1.62,0-2.93-1.31-2.93-2.93v-5.67c0-1.74-1.41-3.16-3.15-3.16h-1.17c-1.74,0-3.15,1.42-3.15,3.16v5.67c0,1.62-1.31,2.93-2.93,2.93s-2.93-1.31-2.93-2.93v-5.67c0-4.97,4.04-9.01,9.01-9.01h1.17c4.97,0,9.01,4.04,9.01,9.01v5.67c0,1.62-1.31,2.93-2.93,2.93Z"/><g><g><circle class="cls-1" cx="98.97" cy="45.44" r="2.58"/><path class="cls-1" d="M98.97,49.65c-2.32,0-4.21-1.89-4.21-4.21s1.89-4.21,4.21-4.21,4.21,1.89,4.21,4.21-1.89,4.21-4.21,4.21Zm0-5.16c-.53,0-.95,.43-.95,.95s.43,.96,.95,.96,.95-.43,.95-.96-.43-.95-.95-.95Z"/></g><path class="cls-1" d="M98.97,51.04c-.9,0-1.63-.73-1.63-1.63v-2.8c0-.9,.73-1.63,1.63-1.63s1.63,.73,1.63,1.63v2.8c0,.9-.73,1.63-1.63,1.63Z"/></g></g></svg>