<?xml version="1.0" encoding="UTF-8"?><svg id="Layer_1" xmlns="http://www.w3.org/2000/svg" viewBox="0 0 200 188"><defs><style>.cls-1{fill:#fff;}.cls-2{fill:#72b01d;}.cls-3{fill:none;stroke:#edf4ed;stroke-miterlimit:10;stroke-width:6.71px;}</style></defs><rect class="cls-2" x=".5" width="199" height="188.09" rx="24.75" ry="24.75"/><g><path class="cls-3" d="M30.3,51.13V124.15c0,5.55,4.5,10.06,10.06,10.06h40.29c2.09,0,4.13,.65,5.83,1.86l23.5,16.73c6.72,4.79,16.03-.11,15.89-8.36h0c-.1-5.62,4.44-10.23,10.06-10.23h29.13c5.55,0,10.06-4.5,10.06-10.06V51.13c0-5.55-4.5-10.06-10.06-10.06H40.35c-5.55,0-10.06,4.5-10.06,10.06Z"/><g><path class="cls-1" d="M70.76,77.05c-2.29,0-4.07,.86-5.33,2.59-1.26,1.72-1.89,4.13-1.89,7.21,0,6.41,2.41,9.62,7.22,9.62,2.02,0,4.46-.5,7.34-1.51v5.11c-2.36,.98-5,1.48-7.91,1.48-4.18,0-7.38-1.27-9.6-3.81s-3.32-6.18-3.32-10.93c0-2.99,.54-5.61,1.63-7.86,1.09-2.25,2.65-3.97,4.69-5.17s4.43-1.8,7.17-1.8,5.6,.68,8.42,2.03l-1.97,4.96c-1.08-.51-2.16-.96-3.25-1.34s-2.16-.57-3.21-.57Z"/><path class="cls-1" d="M104.04,101.14h-6v-12.84c0-3.17-1.18-4.76-3.54-4.76-1.68,0-2.89,.57-3.64,1.71-.75,1.14-1.12,2.99-1.12,5.55v10.34h-6v-30.6h6v6.23c0,.48-.05,1.63-.14,3.42l-.14,1.77h.31c1.34-2.15,3.46-3.23,6.37-3.23,2.58,0,4.54,.7,5.88,2.08s2.01,3.38,2.01,5.98v14.34Z"/><path class="cls-1" d="M124.18,101.14l-1.16-2.99h-.16c-1.01,1.27-2.05,2.15-3.12,2.65-1.07,.49-2.46,.74-4.18,.74-2.11,0-3.77-.6-4.99-1.81-1.21-1.21-1.82-2.92-1.82-5.15s.82-4.05,2.45-5.16c1.63-1.11,4.09-1.72,7.39-1.84l3.82-.12v-.96c0-2.23-1.14-3.34-3.42-3.34-1.76,0-3.82,.53-6.19,1.59l-1.99-4.05c2.53-1.32,5.34-1.99,8.42-1.99s5.21,.64,6.79,1.93c1.57,1.29,2.36,3.24,2.36,5.86v14.65h-4.19Zm-1.77-10.19l-2.32,.08c-1.74,.05-3.04,.37-3.89,.94-.85,.58-1.28,1.46-1.28,2.64,0,1.69,.97,2.54,2.91,2.54,1.39,0,2.5-.4,3.33-1.2s1.25-1.86,1.25-3.19v-1.81Z"/><path class="cls-1" d="M143.81,96.76c1.05,0,2.31-.23,3.78-.69v4.46c-1.49,.67-3.33,1-5.51,1-2.4,0-4.15-.61-5.24-1.82-1.1-1.21-1.64-3.03-1.64-5.46v-10.6h-2.87v-2.54l3.3-2.01,1.73-4.64h3.83v4.68h6.16v4.5h-6.16v10.6c0,.85,.24,1.48,.72,1.89,.48,.41,1.11,.61,1.9,.61Z"/></g></g></svg>