<?xml version="1.0" encoding="utf-8"?>
<!-- Generator: Adobe Illustrator 26.5.0, SVG Export Plug-In . SVG Version: 6.00 Build 0)  -->
<svg version="1.1" id="Layer_1" xmlns="http://www.w3.org/2000/svg" xmlns:xlink="http://www.w3.org/1999/xlink" x="0px" y="0px"
	 viewBox="0 0 200 160" style="enable-background:new 0 0 200 160;" xml:space="preserve">
<style type="text/css">
	.st0{fill:#FFFFFF;}
	.st1{fill:#EDF4ED;}
</style>
<g>
	<g>
		<g>
			<path class="st0" d="M59.1,51.3c-3,0-5.3,1.1-7,3.4c-1.7,2.3-2.5,5.4-2.5,9.5c0,8.4,3.2,12.6,9.5,12.6c2.7,0,5.9-0.7,9.6-2v6.7
				c-3.1,1.3-6.6,1.9-10.4,1.9c-5.5,0-9.7-1.7-12.6-5c-2.9-3.3-4.4-8.1-4.4-14.3c0-3.9,0.7-7.4,2.1-10.3c1.4-3,3.5-5.2,6.2-6.8
				c2.7-1.6,5.8-2.4,9.4-2.4c3.7,0,7.4,0.9,11.1,2.7l-2.6,6.5c-1.4-0.7-2.8-1.3-4.3-1.8C61.9,51.6,60.5,51.3,59.1,51.3z"/>
		</g>
		<g>
			<path class="st0" d="M102.8,83h-7.9V66.1c0-4.2-1.5-6.2-4.6-6.2c-2.2,0-3.8,0.7-4.8,2.2c-1,1.5-1.5,3.9-1.5,7.3V83h-7.9V42.8H84
				V51c0,0.6-0.1,2.1-0.2,4.5l-0.2,2.3h0.4c1.8-2.8,4.5-4.2,8.4-4.2c3.4,0,6,0.9,7.7,2.7c1.8,1.8,2.6,4.4,2.6,7.9V83z"/>
		</g>
		<g>
			<path class="st0" d="M129.2,83l-1.5-3.9h-0.2c-1.3,1.7-2.7,2.8-4.1,3.5c-1.4,0.6-3.2,1-5.5,1c-2.8,0-5-0.8-6.5-2.4
				s-2.4-3.8-2.4-6.8c0-3.1,1.1-5.3,3.2-6.8c2.1-1.5,5.4-2.3,9.7-2.4l5-0.2v-1.3c0-2.9-1.5-4.4-4.5-4.4c-2.3,0-5,0.7-8.1,2.1
				l-2.6-5.3c3.3-1.7,7-2.6,11.1-2.6c3.9,0,6.8,0.8,8.9,2.5c2.1,1.7,3.1,4.3,3.1,7.7V83H129.2z M126.9,69.6l-3,0.1
				c-2.3,0.1-4,0.5-5.1,1.2c-1.1,0.8-1.7,1.9-1.7,3.5c0,2.2,1.3,3.3,3.8,3.3c1.8,0,3.3-0.5,4.4-1.6c1.1-1.1,1.6-2.4,1.6-4.2V69.6z"
				/>
		</g>
		<g>
			<path class="st0" d="M155,77.2c1.4,0,3-0.3,5-0.9v5.9c-2,0.9-4.4,1.3-7.2,1.3c-3.2,0-5.4-0.8-6.9-2.4c-1.4-1.6-2.2-4-2.2-7.2V60
				h-3.8v-3.3l4.3-2.6l2.3-6.1h5v6.1h8.1V60h-8.1v13.9c0,1.1,0.3,1.9,0.9,2.5S154,77.2,155,77.2z"/>
		</g>
	</g>
	<g>
		<path class="st1" d="M117.2,159c-3.6,0-7.1-1.1-10.2-3.3l-30.9-22c-1.5-1.1-3.3-1.6-5.1-1.6H18.1c-9.7,0-17.6-7.9-17.6-17.6V18.6
			C0.5,8.9,8.4,1,18.1,1h163.8c9.7,0,17.6,7.9,17.6,17.6v95.9c0,9.7-7.9,17.6-17.6,17.6h-38.3c-2.4,0-4.6,0.9-6.3,2.6
			c-1.7,1.7-2.6,3.9-2.5,6.3c0.1,6.7-3.5,12.8-9.4,15.9C122.8,158.3,120,159,117.2,159z M18.1,9.8c-4.9,0-8.8,3.9-8.8,8.8v95.9
			c0,4.9,3.9,8.8,8.8,8.8H71c3.7,0,7.2,1.1,10.2,3.3l30.9,22c2.8,2,6.2,2.2,9.2,0.6c3-1.6,4.8-4.5,4.7-7.9
			c-0.1-4.8,1.7-9.3,5.1-12.6c3.3-3.4,7.8-5.3,12.6-5.3h38.3c4.9,0,8.8-3.9,8.8-8.8V18.6c0-4.9-3.9-8.8-8.8-8.8H18.1z"/>
	</g>
</g>
</svg>
