<?xml version="1.0" encoding="utf-8"?>
<!-- Generator: Adobe Illustrator 27.0.1, SVG Export Plug-In . SVG Version: 6.00 Build 0)  -->
<svg version="1.1" id="Layer_1" xmlns="http://www.w3.org/2000/svg" xmlns:xlink="http://www.w3.org/1999/xlink" x="0px" y="0px"
	 viewBox="0 0 60 60" style="enable-background:new 0 0 60 60;" xml:space="preserve">
<style type="text/css">
	.st0{fill:#74C1CE;}
</style>
<g>
	<g>
		<path class="st0" d="M33.7,34.2c-6.2,6.2-16.4,6.2-22.7,0c-6.2-6.2-6.2-16.4,0-22.7s16.4-6.2,22.7,0C40,17.8,40,28,33.7,34.2z
			 M14.7,15.2c-4.2,4.2-4.2,11.1,0,15.4c4.2,4.2,11.1,4.2,15.4,0s4.2-11.1,0-15.4C25.9,11,19,11,14.7,15.2z"/>
	</g>
	<path class="st0" d="M52.3,51.9L52.3,51.9c-1.7,1.7-4.5,1.7-6.2,0L29.3,35l6.2-6.2l16.9,16.9C54,47.4,54,50.2,52.3,51.9z"/>
</g>
</svg>
