<?xml version="1.0" encoding="utf-8"?>
<!-- Generator: Adobe Illustrator 27.0.1, SVG Export Plug-In . SVG Version: 6.00 Build 0)  -->
<svg version="1.1" id="Layer_1" xmlns="http://www.w3.org/2000/svg" xmlns:xlink="http://www.w3.org/1999/xlink" x="0px" y="0px"
	 viewBox="0 0 30 30" style="enable-background:new 0 0 30 30;" xml:space="preserve">
<style type="text/css">
	.st0{fill:#258EA6;}
</style>
<g>
	<path class="st0" d="M5.8,3.8c1.1,0,2,0.9,2,2c0,1.1-0.9,2.1-2,2.1s-2-0.9-2-2.1C3.8,4.7,4.7,3.8,5.8,3.8 M21,11.4
		c3.7,0,5.1,1.8,5.1,6.8v8h-3.3v-7c0-1.7,0-5.1-3.4-5.1c-3.8,0-3.8,3.7-3.8,5v7.1h-3.3V11.8h3.1v1.3V14h0.8h0.1h0.5l0.2-0.5
		C17.6,12.6,18.9,11.4,21,11.4 M7.5,11.8v14.4H4.2V11.8H7.5 M5.8,3C4.2,3,2.9,4.2,2.9,5.8s1.3,2.9,2.9,2.9c1.6,0,2.9-1.3,2.9-2.9
		S7.4,3,5.8,3L5.8,3z M21,10.6c-2.4,0-4.1,1.3-4.7,2.6h-0.1V11h-4.8V27h5v-8c0-2.1,0.4-4.1,3-4.1c2.6,0,2.6,2.4,2.6,4.3V27h5h0v-8.8
		C27,13.9,26.1,10.6,21,10.6L21,10.6z M8.3,11h-5V27h5V11L8.3,11z"/>
</g>
</svg>
