<?xml version="1.0" encoding="UTF-8"?><svg id="Layer_1" xmlns="http://www.w3.org/2000/svg" viewBox="0 0 200 200"><defs><style>.cls-1{fill:#0a2239;}</style></defs><path class="cls-1" d="M69.99,116.81c-2.05-17.73-7.03-42.52-19.16-59.96l6.42-4.46c13.06,18.77,18.36,44.9,20.51,63.53l-7.77,.9Z"/><path class="cls-1" d="M131.5,116.84l-7.77-.9c2.15-18.63,7.45-44.78,20.51-63.55l6.42,4.46c-12.13,17.44-17.12,42.24-19.16,59.98Z"/><path class="cls-1" d="M112.03,116.4l-7.81-.32c1.2-29.59,5.71-69.3,20.42-90.44l6.42,4.46c-13.63,19.59-17.87,57.74-19.02,86.3Z"/><path class="cls-1" d="M88.58,116.55c-1.15-28.61-5.38-66.83-19.03-86.45l6.42-4.46c14.72,21.17,19.23,60.95,20.42,90.6l-7.81,.32Z"/><circle class="cls-1" cx="70.69" cy="21.41" r="10.87"/><circle class="cls-1" cx="53.14" cy="53.07" r="11.14"/><circle class="cls-1" cx="127.62" cy="25.3" r="10.48"/><circle class="cls-1" cx="147.46" cy="53.88" r="10.54"/><path class="cls-1" d="M147.02,189.46H56.32V112.83h90.7v76.62Zm-82.88-7.82h75.06v-60.98H64.14v60.98Z"/><rect class="cls-1" x="60.29" y="132.93" width="82.05" height="7.82"/></svg>