<svg xmlns="http://www.w3.org/2000/svg" viewBox="0 0 24 24"><path style="fill:#0069f8" d="M15.56,0H8.44A8.44,8.44,0,0,0,0,8.44v7.12a8.27,8.27,0,0,0,.29,2.19,8.39,8.39,0,0,0,.77,1.91,5.7,5.7,0,0,1-.77,3.91L0,24l.29-.06c1.19-.25,3.28-.64,4.36-.83A8.46,8.46,0,0,0,8.44,24h7.12A8.44,8.44,0,0,0,24,15.56V8.44A8.44,8.44,0,0,0,15.56,0ZM9.19,8.72a2.81,2.81,0,0,1,5.62,0v3.19a2.81,2.81,0,0,1-5.62,0Zm9.37,3.14a6.59,6.59,0,0,1-5.27,6.48,1,1,0,0,0-.56.34.94.94,0,0,1-1.46,0,1,1,0,0,0-.56-.34,6.56,6.56,0,0,1-5.27-6.43V11a1,1,0,0,1,.94-1,.93.93,0,0,1,.93.94v.89a4.69,4.69,0,1,0,9.38.05V11a1,1,0,0,1,.94-1,.93.93,0,0,1,.93.94Z"/></svg>