<svg xmlns="http://www.w3.org/2000/svg" viewBox="0 0 18 18"><path style="fill:#a0a5ab" d="M11.37,1H6.62A5.62,5.62,0,0,0,1,6.62v4.75a5.92,5.92,0,0,0,.19,1.47,5.85,5.85,0,0,0,.52,1.27,3.76,3.76,0,0,1-.52,2.6A2.9,2.9,0,0,1,1,17l.19,0c.79-.17,2.19-.42,2.91-.56a5.51,5.51,0,0,0,2.52.6h4.75A5.63,5.63,0,0,0,17,11.37V6.62A5.63,5.63,0,0,0,11.37,1ZM7.12,6.81a1.88,1.88,0,0,1,3.75,0V8.94a1.88,1.88,0,0,1-3.75,0Zm6.25,2.1a4.39,4.39,0,0,1-3.51,4.32.64.64,0,0,0-.37.22.62.62,0,0,1-.88.1.47.47,0,0,1-.1-.1.64.64,0,0,0-.37-.22A4.4,4.4,0,0,1,4.62,8.94V8.32a.64.64,0,0,1,.63-.63.62.62,0,0,1,.62.62v.6a3.13,3.13,0,1,0,6.25,0V8.32a.64.64,0,0,1,.63-.63.62.62,0,0,1,.62.62Z"/><path opacity="0" d="M1,1H0V0H1ZM18,17H17v1h1Z"/></svg>