<?xml version="1.0" standalone="no"?>
<!DOCTYPE svg PUBLIC "-//W3C//DTD SVG 20010904//EN"
 "http://www.w3.org/TR/2001/REC-SVG-20010904/DTD/svg10.dtd">
<svg version="1.0" xmlns="http://www.w3.org/2000/svg"
 width="700.000000pt" height="700.000000pt" viewBox="0 0 700.000000 700.000000"
 preserveAspectRatio="xMidYMid meet">
<metadata>
Created by potrace 1.14, written by Peter Selinger 2001-2017
</metadata>
<g transform="translate(0.000000,700.000000) scale(0.100000,-0.100000)"
fill="#000000" stroke="none">
<path d="M3513 6678 c24 -42 42 -74 95 -168 14 -25 43 -73 64 -108 21 -34 38
-64 38 -66 0 -2 47 -84 103 -182 57 -99 115 -199 129 -224 14 -25 99 -173 190
-330 229 -398 476 -826 506 -880 14 -25 35 -61 47 -80 12 -19 34 -58 49 -85
15 -28 35 -63 45 -80 30 -51 561 -976 561 -979 0 -2 -23 -43 -52 -92 -67 -116
-382 -664 -583 -1014 -87 -151 -181 -315 -210 -365 -29 -49 -62 -106 -72 -125
-16 -28 -149 -261 -322 -560 -14 -26 -81 -143 -149 -260 -68 -118 -127 -222
-133 -230 -17 -28 -301 -524 -314 -550 l-13 -26 796 1 c438 1 800 3 803 4 4 0
16 18 27 39 10 20 90 161 177 312 87 151 167 291 178 310 10 19 23 40 27 45 4
6 18 30 32 55 14 25 96 169 183 320 87 151 171 300 188 330 16 30 38 66 47 80
10 14 29 48 44 75 15 28 35 64 45 80 10 17 91 158 181 315 90 157 171 299 181
315 10 17 37 64 60 105 23 41 89 155 146 253 56 98 103 180 103 183 0 3 8 18
19 32 10 15 29 47 43 72 14 25 48 85 77 134 28 49 51 91 51 93 0 3 9 18 20 33
22 31 20 41 -20 111 -15 25 -38 65 -52 90 -79 139 -399 696 -408 709 -5 8 -21
35 -35 60 -14 25 -33 59 -43 75 -19 33 -131 228 -147 258 -12 21 -235 410
-418 727 -72 124 -138 239 -147 255 -35 62 -289 504 -345 600 -32 55 -69 120
-83 144 -14 25 -38 67 -53 93 -16 27 -29 51 -29 54 0 2 -11 22 -25 44 l-25 40
-801 0 -801 0 25 -42z"/>
<path d="M1530 6198 c0 -6 196 -349 933 -1628 93 -162 224 -389 290 -505 66
-115 124 -212 128 -215 6 -4 1388 -5 1396 -1 1 1 -46 85 -106 189 -59 103
-178 309 -263 457 -86 149 -224 389 -308 535 -84 146 -231 402 -328 570 -96
168 -197 342 -223 388 -27 45 -49 84 -49 86 0 2 -17 33 -39 67 l-38 64 -697 0
c-383 0 -696 -3 -696 -7z"/>
<path d="M67 4882 c-18 -4 -16 -8 61 -135 23 -37 42 -72 42 -77 0 -6 5 -10 10
-10 6 0 10 -4 10 -9 0 -9 232 -408 250 -428 5 -7 10 -14 10 -16 0 -2 36 -64
80 -138 43 -74 91 -154 105 -179 l25 -45 710 0 c519 0 709 3 706 11 -2 6 -86
150 -187 320 -100 170 -234 398 -298 506 l-116 198 -90 0 c-384 3 -1305 4
-1318 2z"/>
<path d="M2881 3140 c-5 -3 -40 -59 -78 -125 -79 -136 -296 -512 -326 -565
-10 -19 -70 -123 -132 -230 -248 -431 -309 -537 -331 -575 -12 -22 -88 -155
-169 -295 -81 -140 -156 -271 -167 -290 -10 -19 -23 -42 -28 -50 -21 -32 -120
-209 -120 -214 0 -4 314 -6 698 -6 l697 0 145 251 c80 138 155 270 168 293 13
22 41 70 61 106 30 51 393 683 489 850 11 19 61 107 112 195 50 88 102 178
115 200 12 22 75 131 139 242 64 111 116 205 116 210 0 9 -1376 12 -1389 3z"/>
</g>
</svg>
