<?xml version="1.0" encoding="utf-8"?>
<!-- Generator: Adobe Illustrator 21.0.2, SVG Export Plug-In . SVG Version: 6.00 Build 0)  -->
<svg version="1.1" id="Layer_1" xmlns="http://www.w3.org/2000/svg" xmlns:xlink="http://www.w3.org/1999/xlink" x="0px" y="0px"
	 width="73px" height="38px" viewBox="0 0 73 38" style="enable-background:new 0 0 73 38;" xml:space="preserve">
<style type="text/css">
	.st0{fill:#FFFFFE;}
</style>
<g>
	<path class="st0" d="M1.6,35.1L1,36.5h1.1L1.6,35.1z M2.7,38l-0.4-1.1H0.9l-0.4,1H0l1.3-3.4h0.5l1.3,3.4L2.7,38z M6.7,38
		C5.6,38,5,37.3,5,36.2c0-1.1,0.6-1.8,1.6-1.8c0.5,0,0.8,0.1,1,0.3l-0.1,0.5c-0.3-0.2-0.6-0.3-1-0.3c-0.7,0-1.1,0.5-1.1,1.3
		c0,0.8,0.4,1.3,1.2,1.3c0.3,0,0.5-0.1,0.7-0.2v-0.9H6.6l-0.1-0.4h1.3v1.6C7.5,37.8,7.1,38,6.7,38"/>
	<polyline class="st0" points="10.2,37.9 10.2,34.5 12,34.5 12,34.9 10.7,34.9 10.7,35.9 11.7,35.9 11.8,36.4 10.7,36.4 10.7,37.5 
		12.1,37.5 12.1,37.9 10.2,37.9 	"/>
	<polyline class="st0" points="16.6,37.9 14.7,35.3 14.7,37.9 14.3,37.9 14.3,34.5 14.7,34.5 16.5,37.1 16.5,34.5 16.9,34.5 
		16.9,37.9 16.6,37.9 	"/>
	<path class="st0" d="M20.8,38c-1,0-1.6-0.7-1.6-1.8c0-1.1,0.6-1.8,1.6-1.8c0.4,0,0.7,0.1,1,0.3l-0.1,0.5c-0.2-0.2-0.5-0.3-0.9-0.3
		c-0.7,0-1.1,0.5-1.1,1.3c0,0.8,0.4,1.3,1.1,1.3c0.4,0,0.7-0.1,1-0.3l0.1,0.4C21.6,37.9,21.2,38,20.8,38"/>
	<polyline class="st0" points="25.5,36.6 25.5,37.9 25,37.9 25,36.6 23.8,34.6 24.2,34.5 25.2,36.1 26.2,34.5 26.7,34.5 25.5,36.6 	
		"/>
	<path class="st0" d="M32.9,34.9c-0.7,0-1.1,0.5-1.1,1.3c0,0.8,0.4,1.3,1.1,1.3c0.7,0,1.1-0.5,1.1-1.3C34,35.4,33.6,34.9,32.9,34.9z
		 M32.9,38c-1,0-1.6-0.7-1.6-1.8c0-1.1,0.6-1.8,1.6-1.8c1,0,1.6,0.7,1.6,1.8C34.5,37.3,33.9,38,32.9,38z"/>
	<polyline class="st0" points="37.3,34.9 37.3,36 38.3,36 38.4,36.4 37.3,36.4 37.3,37.9 36.8,37.9 36.8,34.5 38.6,34.5 38.6,34.9 
		37.3,34.9 	"/>
	<polyline class="st0" points="41.2,34.9 41.2,36 42.3,36 42.3,36.4 41.2,36.4 41.2,37.9 40.8,37.9 40.8,34.5 42.5,34.5 42.5,34.9 
		41.2,34.9 	"/>
	<path class="st0" d="M48.3,34.9h-0.4v1.2h0.4c0.5,0,0.7-0.2,0.7-0.6C49,35.1,48.8,34.9,48.3,34.9z M49.7,37.9L49.3,38l-1-1.5h-0.4
		v1.4h-0.5v-3.4h0.9c0.7,0,1.1,0.3,1.1,1c0,0.5-0.3,0.8-0.7,0.9L49.7,37.9z"/>
	<polyline class="st0" points="51.8,37.9 51.8,34.5 53.7,34.5 53.7,34.9 52.3,34.9 52.3,35.9 53.4,35.9 53.4,36.4 52.3,36.4 
		52.3,37.5 53.7,37.5 53.7,37.9 51.8,37.9 	"/>
	<path class="st0" d="M57.3,38c-1,0-1.6-0.7-1.6-1.8c0-1.1,0.6-1.8,1.6-1.8c0.4,0,0.7,0.1,1,0.3l-0.1,0.5c-0.2-0.2-0.5-0.3-0.9-0.3
		c-0.7,0-1.1,0.5-1.1,1.3c0,0.8,0.4,1.3,1.1,1.3c0.4,0,0.7-0.1,1-0.3l0.1,0.4C58.1,37.9,57.7,38,57.3,38 M61.9,34.9
		c-0.7,0-1.1,0.5-1.1,1.3c0,0.8,0.4,1.3,1.1,1.3c0.7,0,1.1-0.5,1.1-1.3C63,35.4,62.6,34.9,61.9,34.9z M61.9,38c-1,0-1.6-0.7-1.6-1.8
		c0-1.1,0.6-1.8,1.6-1.8c1,0,1.6,0.7,1.6,1.8C63.5,37.3,62.9,38,61.9,38z M66.7,34.9h-0.4v1.2h0.4c0.5,0,0.7-0.2,0.7-0.6
		C67.4,35.1,67.1,34.9,66.7,34.9z M68.1,37.9L67.6,38l-1-1.5h-0.4v1.4h-0.5v-3.4h0.9c0.7,0,1.1,0.3,1.1,1c0,0.5-0.3,0.8-0.7,0.9
		L68.1,37.9z M71.2,34.9h-0.5v2.6h0.5c0.8,0,1.3-0.4,1.3-1.3C72.5,35.4,72,34.9,71.2,34.9z M71.2,37.9h-1v-3.4h1
		c1.2,0,1.8,0.7,1.8,1.7C73,37.2,72.3,37.9,71.2,37.9z M36.7,0C30.3,0,25,5.9,25,13.1c0,3.4,1.1,6.4,3,8.7c0.1,0.1,0.2,0.2,0.4,0.2
		H32c0.1,0,0.1-0.1,0.1-0.2c-2.5-1.8-4.2-5.1-4.2-8.8c0-5.7,4-10.3,8.9-10.3s8.9,4.6,8.9,10.3c0,5.6-3.9,10.2-8.8,10.3v0H23.3
		c-0.2,0-0.3-0.1-0.4-0.3L12.7,1.3l0,0c-0.2-0.5-0.8-0.8-1.3-0.8c-0.6,0-1.1,0.3-1.3,0.8l-10,22.8c-0.2,0.6-0.1,1.2,0.3,1.6
		c0.3,0.3,0.6,0.4,1,0.4c0.2,0,0.5-0.1,0.7-0.2l11.5-6.2c0.2-0.1,0.3-0.4,0.2-0.6L13,17.5c-0.1-0.2-0.4-0.3-0.6-0.2l-7.5,4.1
		c-0.2,0.1-0.4-0.1-0.3-0.3L11,6.1c0.2-0.4,0.7-0.4,0.9,0l9,19.2l0,0c0.2,0.5,0.7,0.8,1.3,0.8h14.5c6.4,0,11.7-5.9,11.7-13.1
		C48.4,5.9,43.1,0,36.7,0z M72.5,26.1h-2.4c-0.1,0-0.3-0.1-0.4-0.2l-9.3-11c-0.3-0.4-0.4-0.9-0.3-1.4c0.2-0.5,0.6-0.8,1.1-0.9
		c0,0,1.4-0.3,2.7-1.1c1.6-0.9,2.4-2.1,2.4-3.6c0-2.9-2-4.7-5.3-4.7h-4.2c-0.3,0-0.5,0.2-0.5,0.5v21c0,0.8-0.6,1.4-1.4,1.4
		c0,0-10.4,0-12.5,0c-0.1,0-0.1-0.1,0-0.2c1.2-0.6,2.2-1.5,3.2-2.5c0.1-0.1,0.2-0.1,0.3-0.1h7.2c0.3,0,0.5-0.2,0.5-0.5v-21
		c0-0.8,0.6-1.4,1.4-1.4h6c2.5,0,4.5,0.8,6,2.2c1.3,1.3,2.1,3.2,2.1,5.3c0,2.5-1.3,4.6-3.8,6.1c-0.4,0.2-0.8,0.4-1.2,0.6
		c-0.1,0.1-0.2,0.2-0.1,0.4l8.8,10.4C73.1,25.7,72.9,26.1,72.5,26.1z"/>
</g>
</svg>
