<?xml version="1.0" encoding="utf-8"?>
<!-- Generator: Adobe Illustrator 21.0.2, SVG Export Plug-In . SVG Version: 6.00 Build 0)  -->
<svg version="1.1" id="Layer_1" xmlns="http://www.w3.org/2000/svg" xmlns:xlink="http://www.w3.org/1999/xlink" x="0px" y="0px"
	 width="277px" height="300px" viewBox="0 0 277 300" style="enable-background:new 0 0 277 300;" xml:space="preserve">
<style type="text/css">
	.st0{fill:none;}
	.st1{fill:#E8E8E8;}
	.st2{clip-path:url(#SVGID_2_);fill:url(#SVGID_3_);}
</style>
<pattern  x="-13.8408947" y="300" width="32.6066322" height="32.000145" patternUnits="userSpaceOnUse" id="SVGID_4_" viewBox="5.6043396 -32.000145 32.6066322 32.000145" style="overflow:visible;">
	<g>
		<rect x="5.6043396" y="-32.000145" class="st0" width="32.6066322" height="32.000145"/>
		<g>
			<rect x="5.6043391" y="-32.000145" class="st0" width="32.6066322" height="32.000145"/>
			<g>
				<g>
					<polygon class="st1" points="39.8493767,-31.106308 32.6078033,-18.5624695 34.4193077,-18.5624695 41.6606483,-31.106308 
											"/>
					<polygon class="st1" points="34.1192245,-31.106308 32.8662224,-31.106308 30.0589619,-26.2471466 31.3117294,-26.2471466 
											"/>
					<polygon class="st1" points="36.2294083,-31.106308 30.4704647,-21.123951 32.0027199,-21.123951 37.7616653,-31.106308 					
						"/>
					<polygon class="st1" points="44.2715187,-32.0002403 35.0351601,-16.0007534 37.1256828,-16.0007534 46.362278,-32.0002403 
						46.3620453,-32.0009422 44.2710533,-32.0009422 					"/>
				</g>
			</g>
			<g>
				<g>
					<polygon class="st1" points="7.2427454,-31.106308 0.0011704,-18.5624695 1.812676,-18.5624695 9.0540171,-31.106308 					"/>
					<polygon class="st1" points="11.6648884,-32.0002403 2.4285271,-16.0007534 4.5190496,-16.0007534 13.7556448,-32.0002403 
						13.7554111,-32.0009422 11.6644201,-32.0009422 					"/>
				</g>
			</g>
			<g>
				<g>
					<polygon class="st1" points="37.7607269,-0.8954315 32.0015488,-10.8775558 30.4692955,-10.8775558 36.2287064,-0.8954315 
											"/>
					<polygon class="st1" points="46.3620453,-0.0007973 37.1245117,-16.0007534 35.0337563,-16.0007534 44.2710533,-0.0007973 
											"/>
					<polygon class="st1" points="41.6599464,-0.8954315 34.4179039,-13.4392719 32.6066322,-13.4392719 39.8484421,-0.8954315 
											"/>
				</g>
			</g>
			<g>
				<g>
					<polygon class="st1" points="23.5460606,-15.1062355 16.3044872,-2.562397 18.1159916,-2.562397 25.3573322,-15.1062355 					
						"/>
					<polygon class="st1" points="17.8159084,-15.1062355 16.5629044,-15.1062355 13.7556448,-10.247076 15.0084143,-10.247076 
											"/>
					<polygon class="st1" points="19.9260941,-15.1062355 14.1671486,-5.1238785 15.6994028,-5.1238785 21.4583473,-15.1062355 
											"/>
					<polygon class="st1" points="27.9682045,-16.0001678 18.7318439,-0.000679 20.8223667,-0.000679 30.0589619,-16.0001678 
						30.0587273,-16.0008698 27.9677353,-16.0008698 					"/>
				</g>
				<g>
					<polygon class="st1" points="21.4574108,-16.895504 15.6982327,-26.8776283 14.1659784,-26.8776283 19.9253902,-16.895504 
											"/>
					<polygon class="st1" points="30.0587273,-16.0008698 20.8211956,-32.000824 18.7304382,-32.000824 27.9677353,-16.0008698 
											"/>
					<polygon class="st1" points="25.3566303,-16.895504 18.1145878,-29.4393444 16.3033161,-29.4393444 23.545126,-16.895504 					
						"/>
				</g>
			</g>
			<g>
				<g>
					<polygon class="st1" points="13.7554111,-0.0007973 4.5178795,-16.0007534 2.4271226,-16.0007534 11.6644201,-0.0007973 					
						"/>
					<polygon class="st1" points="9.0533142,-0.8954315 1.8112715,-13.4392719 0,-13.4392719 7.2418089,-0.8954315 					"/>
				</g>
			</g>
		</g>
	</g>
</pattern>
<g>
	<defs>
		<rect id="SVGID_1_" x="0" width="277" height="300"/>
	</defs>
	<clipPath id="SVGID_2_">
		<use xlink:href="#SVGID_1_"  style="overflow:visible;"/>
	</clipPath>
	<pattern  id="SVGID_3_" xlink:href="#SVGID_4_" patternTransform="matrix(1 0 0 -1 2647.8017578 -16031.3535156)">
	</pattern>
	<rect x="-13.8408947" class="st2" width="300" height="300"/>
</g>
</svg>
