<?xml version="1.0" encoding="utf-8"?>
<!-- Generator: Adobe Illustrator 21.0.2, SVG Export Plug-In . SVG Version: 6.00 Build 0)  -->
<svg version="1.1" id="Layer_1" xmlns="http://www.w3.org/2000/svg" xmlns:xlink="http://www.w3.org/1999/xlink" x="0px" y="0px"
	 width="277px" height="300px" viewBox="0 0 277 300" style="enable-background:new 0 0 277 300;" xml:space="preserve">
<style type="text/css">
	.st0{fill:none;}
	.st1{clip-path:url(#SVGID_2_);}
	.st2{fill:#FFFFFF;}
	.st3{clip-path:url(#SVGID_4_);fill:url(#New_Pattern);}
</style>
<pattern  x="-13.8408947" y="300" width="32.6066322" height="32.000145" patternUnits="userSpaceOnUse" id="New_Pattern" viewBox="5.6043358 -32.000145 32.6066322 32.000145" style="overflow:visible;">
	<g>
		<rect x="5.6043358" y="-32.000145" class="st0" width="32.6066322" height="32.000145"/>
		<g>
			<defs>
				<rect id="SVGID_1_" x="5.6043396" y="-32.0001755" width="32.6066322" height="32.000145"/>
			</defs>
			<clipPath id="SVGID_2_">
				<use xlink:href="#SVGID_1_"  style="overflow:visible;"/>
			</clipPath>
			<g class="st1">
				<polygon class="st2" points="39.8493767,-31.1063404 32.6078033,-18.5625 34.4193077,-18.5625 41.6606483,-31.1063404 				"/>
				<polygon class="st2" points="34.1192245,-31.1063404 32.8662224,-31.1063404 30.0589619,-26.247179 31.3117294,-26.247179 				
					"/>
				<polygon class="st2" points="36.2294083,-31.1063404 30.4704647,-21.1239815 32.0027199,-21.1239815 37.7616653,-31.1063404 
									"/>
				<polygon class="st2" points="44.2715187,-32.0002708 35.0351601,-16.0007858 37.1256828,-16.0007858 46.362278,-32.0002708 
					46.3620453,-32.0009727 44.2710533,-32.0009727 				"/>
			</g>
			<g class="st1">
				<polygon class="st2" points="7.2427454,-31.1063404 0.0011704,-18.5625 1.812676,-18.5625 9.0540171,-31.1063404 				"/>
				<polygon class="st2" points="11.6648884,-32.0002708 2.4285271,-16.0007858 4.5190496,-16.0007858 13.7556448,-32.0002708 
					13.7554111,-32.0009727 11.6644201,-32.0009727 				"/>
			</g>
			<g class="st1">
				<polygon class="st2" points="37.7607269,-0.8954638 32.0015488,-10.8775883 30.4692955,-10.8775883 36.2287064,-0.8954638 				
					"/>
				<polygon class="st2" points="46.3620453,-0.0008295 37.1245117,-16.0007858 35.0337563,-16.0007858 44.2710533,-0.0008295 				
					"/>
				<polygon class="st2" points="41.6599464,-0.8954638 34.4179039,-13.4393044 32.6066322,-13.4393044 39.8484421,-0.8954638 				
					"/>
			</g>
			<g class="st1">
				<g>
					<polygon class="st2" points="23.5460606,-15.1062679 16.3044872,-2.5624292 18.1159916,-2.5624292 25.3573322,-15.1062679 
											"/>
					<polygon class="st2" points="17.8159084,-15.1062679 16.5629044,-15.1062679 13.7556448,-10.2471085 15.0084143,-10.2471085 
											"/>
					<polygon class="st2" points="19.9260941,-15.1062679 14.1671486,-5.1239109 15.6994028,-5.1239109 21.4583473,-15.1062679 
											"/>
					<polygon class="st2" points="27.9682045,-16.0002003 18.7318439,-0.0007113 20.8223667,-0.0007113 30.0589619,-16.0002003 
						30.0587273,-16.0009022 27.9677353,-16.0009022 					"/>
				</g>
				<g>
					<polygon class="st2" points="21.4574108,-16.8955364 15.6982327,-26.8776608 14.1659784,-26.8776608 19.9253902,-16.8955364 
											"/>
					<polygon class="st2" points="30.0587273,-16.0009022 20.8211956,-32.0008583 18.7304382,-32.0008583 27.9677353,-16.0009022 
											"/>
					<polygon class="st2" points="25.3566303,-16.8955364 18.1145878,-29.4393768 16.3033161,-29.4393768 23.545126,-16.8955364 
											"/>
				</g>
			</g>
			<g class="st1">
				<polygon class="st2" points="13.7554111,-0.0008295 4.5178795,-16.0007858 2.4271226,-16.0007858 11.6644201,-0.0008295 				"/>
				<polygon class="st2" points="9.0533142,-0.8954638 1.8112715,-13.4393044 0,-13.4393044 7.2418089,-0.8954638 				"/>
			</g>
		</g>
	</g>
</pattern>
<g>
	<defs>
		<rect id="SVGID_3_" x="0" width="277" height="300"/>
	</defs>
	<use xlink:href="#SVGID_3_"  style="overflow:visible;fill:url(#New_Pattern);"/>
	<clipPath id="SVGID_4_">
		<use xlink:href="#SVGID_3_"  style="overflow:visible;"/>
	</clipPath>
	<rect x="-13.8408947" class="st3" width="300" height="300"/>
</g>
</svg>
