<?xml version="1.0" encoding="utf-8"?>
<!-- Generator: Adobe Illustrator 21.0.2, SVG Export Plug-In . SVG Version: 6.00 Build 0)  -->
<svg version="1.1" id="Layer_1" xmlns="http://www.w3.org/2000/svg" xmlns:xlink="http://www.w3.org/1999/xlink" x="0px" y="0px"
	 width="100px" height="100px" viewBox="0 0 100 100" style="enable-background:new 0 0 100 100;" xml:space="preserve">
<style type="text/css">
	.st0{fill:#231F20;}
</style>
<path class="st0" d="M50,97.2910156C23.9238281,97.2910156,2.7094727,76.0761719,2.7094727,50S23.9238281,2.7094727,50,2.7094727
	S97.2910156,23.9238281,97.2910156,50S76.0761719,97.2910156,50,97.2910156z M50,10.7094727
	c-21.6650391,0-39.2905273,17.6254883-39.2905273,39.2905273S28.3349609,89.2910156,50,89.2910156
	S89.2910156,71.6650391,89.2910156,50S71.6650391,10.7094727,50,10.7094727z M50,18.1942463
	c-5.2807236,0-9.5615959,4.2808723-9.5615959,9.5615959S44.7192764,37.31744,50,37.31744s9.5615959-4.2808723,9.5615959-9.5615978
	S55.2807236,18.1942463,50,18.1942463z"/>
</svg>
